<?xml version="1.0" encoding="utf-8"?>
<!-- Generator: Adobe Illustrator 25.0.1, SVG Export Plug-In . SVG Version: 6.00 Build 0)  -->
<svg version="1.1" id="Layer_1" xmlns="http://www.w3.org/2000/svg" xmlns:xlink="http://www.w3.org/1999/xlink" x="0px" y="0px"
	 viewBox="0 0 442.8 258.1" style="enable-background:new 0 0 442.8 258.1;" xml:space="preserve">
<style type="text/css">
	.st0{fill:#FFFFFF;}
	.st1{enable-background:new    ;}
</style>
<g id="BACKGROUND">
</g>
<g id="OBJECTS">
	<g>
		<g>
			<g>
				<g>
					<path class="st0" d="M120.6,143.7c-17.8-8.8-34.2-27-55.7-24.4c-23.3,4.2-38.9,24.9-48.3,45.2c16.8-0.2,45.6-0.7,62.4-1.1
						c5.4-0.4,16.4,0,21.7-1.1c12.8-5.9-25.2-15.3-29.1-16.7c9.4,4.1,19.6,7.6,28,13.5c-21.3-0.1-50.4-1.4-71.9-1.4
						c8.7-14.2,21.3-28.3,38.2-31.4c11.3-1.8,21.2,4.9,31.1,10.5c26.8,17.3,58.8,29.6,91.2,26.9
						C164.2,162.3,141.2,155.6,120.6,143.7z M100.3,159.7C100.3,159.8,100.3,159.8,100.3,159.7L100.3,159.7z"/>
				</g>
				<g>
					<path class="st0" d="M420.3,159.5c-9.5-18.3-24.5-36.5-45.9-40.2c-13.1-2.3-24.9,5.5-35.5,12c-26.3,18-55.6,31.1-87.9,32.3
						c32.4,2.7,64.4-9.6,91.2-26.9c9.9-5.5,19.8-12.3,31.1-10.5c16.9,3.2,29.5,17.3,38.2,31.4c-21.5,0-50.5,1.3-71.9,1.4
						c8.4-5.9,18.6-9.4,28-13.5c-3.8,1.3-41.9,10.8-29.1,16.7c5.2,1.1,16.4,0.7,21.7,1.1c16.8,0.5,45.6,0.9,62.4,1.1L420.3,159.5z
						 M338.9,159.7L338.9,159.7C338.9,159.8,338.9,159.8,338.9,159.7z"/>
				</g>
			</g>
		</g>
		<g>
			<g class="st1">
				<path class="st0" d="M121.9,196.7H104v18.5h-9.3V170h29.4v7.5H104v11.7h17.9V196.7z"/>
				<path class="st0" d="M126.9,198.1c0-2.4,0.4-4.7,1.1-6.8c0.7-2.1,1.7-3.9,3.1-5.4c1.3-1.5,3-2.7,5-3.6c2-0.9,4.2-1.3,6.8-1.3
					c2.5,0,4.8,0.4,6.8,1.3c2,0.9,3.7,2.1,5,3.6c1.4,1.5,2.4,3.3,3.1,5.4c0.7,2.1,1.1,4.4,1.1,6.8v0.7c0,2.5-0.4,4.7-1.1,6.8
					c-0.7,2.1-1.7,3.9-3.1,5.4c-1.4,1.5-3,2.7-5,3.6c-2,0.9-4.2,1.3-6.8,1.3s-4.8-0.4-6.8-1.3c-2-0.9-3.6-2-5-3.6
					c-1.4-1.5-2.4-3.3-3.1-5.4c-0.7-2.1-1.1-4.4-1.1-6.8V198.1z M135.8,198.7c0,1.4,0.1,2.6,0.4,3.8c0.2,1.2,0.6,2.2,1.2,3.1
					c0.5,0.9,1.3,1.6,2.1,2.1c0.9,0.5,2,0.8,3.2,0.8c1.2,0,2.3-0.3,3.2-0.8c0.9-0.5,1.6-1.2,2.2-2.1s1-1.9,1.2-3.1
					c0.2-1.2,0.4-2.5,0.4-3.8v-0.7c0-1.3-0.1-2.6-0.4-3.8c-0.2-1.2-0.7-2.2-1.2-3.1s-1.3-1.6-2.2-2.1c-0.9-0.5-2-0.8-3.2-0.8
					c-1.2,0-2.3,0.3-3.2,0.8c-0.9,0.5-1.6,1.2-2.1,2.1c-0.5,0.9-0.9,1.9-1.2,3.1c-0.2,1.2-0.4,2.4-0.4,3.8V198.7z"/>
				<path class="st0" d="M162.8,198.1c0-2.4,0.4-4.7,1.1-6.8c0.7-2.1,1.7-3.9,3.1-5.4c1.3-1.5,3-2.7,5-3.6c2-0.9,4.2-1.3,6.8-1.3
					c2.5,0,4.8,0.4,6.8,1.3c2,0.9,3.7,2.1,5,3.6c1.4,1.5,2.4,3.3,3.1,5.4c0.7,2.1,1.1,4.4,1.1,6.8v0.7c0,2.5-0.4,4.7-1.1,6.8
					c-0.7,2.1-1.7,3.9-3.1,5.4c-1.4,1.5-3,2.7-5,3.6c-2,0.9-4.2,1.3-6.8,1.3s-4.8-0.4-6.8-1.3c-2-0.9-3.6-2-5-3.6
					c-1.4-1.5-2.4-3.3-3.1-5.4c-0.7-2.1-1.1-4.4-1.1-6.8V198.1z M171.8,198.7c0,1.4,0.1,2.6,0.4,3.8c0.2,1.2,0.6,2.2,1.2,3.1
					c0.5,0.9,1.3,1.6,2.1,2.1c0.9,0.5,2,0.8,3.2,0.8c1.2,0,2.3-0.3,3.2-0.8c0.9-0.5,1.6-1.2,2.2-2.1s1-1.9,1.2-3.1
					c0.2-1.2,0.4-2.5,0.4-3.8v-0.7c0-1.3-0.1-2.6-0.4-3.8c-0.2-1.2-0.7-2.2-1.2-3.1s-1.3-1.6-2.2-2.1c-0.9-0.5-2-0.8-3.2-0.8
					c-1.2,0-2.3,0.3-3.2,0.8c-0.9,0.5-1.6,1.2-2.1,2.1c-0.5,0.9-0.9,1.9-1.2,3.1c-0.2,1.2-0.4,2.4-0.4,3.8V198.7z"/>
				<path class="st0" d="M198.7,198.1c0-2.5,0.3-4.9,0.9-7c0.6-2.1,1.4-3.9,2.6-5.4c1.1-1.5,2.5-2.7,4.1-3.5
					c1.6-0.8,3.5-1.2,5.6-1.2c1.7,0,3.2,0.3,4.6,1c1.3,0.6,2.5,1.5,3.5,2.7v-17.1h9v47.7h-8.1l-0.4-3.6c-1.1,1.3-2.3,2.4-3.7,3.1
					c-1.4,0.7-3.1,1.1-4.9,1.1c-2.1,0-3.9-0.4-5.5-1.3c-1.6-0.9-3-2-4.1-3.6c-1.1-1.5-2-3.3-2.6-5.4c-0.6-2.1-0.9-4.3-0.9-6.8V198.1
					z M207.7,198.8c0,1.4,0.1,2.6,0.3,3.8c0.2,1.2,0.6,2.2,1.1,3.1c0.5,0.9,1.2,1.6,2,2.1c0.8,0.5,1.8,0.8,3,0.8
					c1.4,0,2.7-0.3,3.6-0.9c1-0.6,1.7-1.5,2.2-2.6v-13.3c-0.5-1.1-1.3-2-2.2-2.6c-1-0.6-2.1-0.9-3.6-0.9c-1.2,0-2.2,0.3-3,0.8
					c-0.8,0.5-1.5,1.2-2,2.1c-0.5,0.9-0.9,1.9-1.1,3.1c-0.2,1.2-0.4,2.5-0.4,3.9V198.8z"/>
				<path class="st0" d="M272,200.1c-0.2,2.3-0.7,4.4-1.6,6.3c-0.9,1.9-2.1,3.6-3.6,5s-3.4,2.5-5.6,3.2c-2.2,0.8-4.7,1.2-7.5,1.2
					c-2.9,0-5.5-0.5-7.8-1.5c-2.3-1-4.3-2.4-5.9-4.3s-2.8-4.2-3.7-6.8s-1.3-5.7-1.3-9v-3c0-3.3,0.4-6.3,1.3-9s2.1-5,3.8-6.9
					c1.6-1.9,3.6-3.3,5.9-4.3s4.9-1.5,7.8-1.5c2.8,0,5.3,0.4,7.5,1.2c2.2,0.8,4,1.9,5.5,3.3c1.5,1.4,2.7,3.1,3.5,5.1
					s1.4,4.1,1.6,6.4h-9.3c-0.1-1.3-0.3-2.5-0.7-3.6c-0.4-1-0.9-1.9-1.6-2.6s-1.6-1.2-2.6-1.6c-1.1-0.4-2.4-0.5-3.9-0.5
					c-3.1,0-5.5,1.1-7,3.4c-1.5,2.3-2.3,5.8-2.3,10.6v3c0,2.3,0.2,4.4,0.5,6.1c0.3,1.8,0.9,3.2,1.6,4.4s1.7,2.1,2.9,2.7
					c1.2,0.6,2.6,0.9,4.2,0.9c1.5,0,2.7-0.2,3.8-0.5s2-0.8,2.7-1.5c0.7-0.7,1.3-1.5,1.7-2.5c0.4-1,0.6-2.2,0.7-3.5H272z"/>
				<path class="st0" d="M277.5,172.9c0-1.3,0.5-2.5,1.3-3.3c0.9-0.9,2.1-1.3,3.7-1.3c0.8,0,1.5,0.1,2.1,0.3s1.1,0.5,1.6,1
					s0.8,0.9,1,1.5c0.2,0.6,0.4,1.2,0.4,1.8c0,0.7-0.1,1.3-0.4,1.9c-0.2,0.6-0.6,1.1-1,1.5s-1,0.7-1.6,1s-1.3,0.3-2.1,0.3
					c-0.8,0-1.5-0.1-2.1-0.3c-0.6-0.2-1.1-0.5-1.6-1s-0.8-0.9-1-1.5C277.6,174.2,277.5,173.6,277.5,172.9z M287,215.2h-9v-33.6h9
					V215.2z"/>
				<path class="st0" d="M305.1,173.3v8.3h5.7v6.6h-5.7v16.8c0,0.7,0.1,1.3,0.2,1.7c0.1,0.5,0.4,0.8,0.7,1.1
					c0.3,0.3,0.6,0.4,1.1,0.5c0.4,0.1,0.9,0.1,1.5,0.1c0.5,0,1,0,1.5-0.1c0.4,0,0.8-0.1,1.2-0.2v6.8c-0.7,0.2-1.6,0.4-2.4,0.6
					c-0.9,0.2-1.9,0.2-3,0.2c-1.5,0-2.8-0.2-4-0.5c-1.2-0.4-2.2-0.9-3-1.7s-1.5-1.8-1.9-3.1c-0.5-1.3-0.7-2.8-0.7-4.6v-17.7h-4.9
					v-6.6h4.9v-8.3H305.1z"/>
				<path class="st0" d="M328.4,202.5l6.2-20.9h9.6l-13.4,38.6c-0.3,0.8-0.7,1.8-1.2,2.8s-1.1,1.9-2,2.8c-0.8,0.9-1.9,1.6-3.1,2.1
					c-1.2,0.6-2.7,0.9-4.5,0.9c-0.4,0-0.8,0-1.1,0s-0.7-0.1-1-0.1c-0.3,0-0.6-0.1-0.9-0.2c-0.3-0.1-0.6-0.2-1-0.3v-6.8
					c0.2,0,0.5,0,0.7,0c0.2,0,0.5,0,0.7,0c0.9,0,1.6-0.1,2.3-0.2c0.6-0.1,1.2-0.4,1.6-0.7s0.8-0.7,1.1-1.1s0.6-1,0.8-1.6l1-2.5
					l-11.8-33.7h9.7L328.4,202.5z"/>
			</g>
			<g class="st1">
				<path class="st0" d="M121.9,196.7H104v18.5h-9.3V170h29.4v7.5H104v11.7h17.9V196.7z"/>
				<path class="st0" d="M126.9,198.1c0-2.4,0.4-4.7,1.1-6.8c0.7-2.1,1.7-3.9,3.1-5.4c1.3-1.5,3-2.7,5-3.6c2-0.9,4.2-1.3,6.8-1.3
					c2.5,0,4.8,0.4,6.8,1.3c2,0.9,3.7,2.1,5,3.6c1.4,1.5,2.4,3.3,3.1,5.4c0.7,2.1,1.1,4.4,1.1,6.8v0.7c0,2.5-0.4,4.7-1.1,6.8
					c-0.7,2.1-1.7,3.9-3.1,5.4c-1.4,1.5-3,2.7-5,3.6c-2,0.9-4.2,1.3-6.8,1.3s-4.8-0.4-6.8-1.3c-2-0.9-3.6-2-5-3.6
					c-1.4-1.5-2.4-3.3-3.1-5.4c-0.7-2.1-1.1-4.4-1.1-6.8V198.1z M135.8,198.7c0,1.4,0.1,2.6,0.4,3.8c0.2,1.2,0.6,2.2,1.2,3.1
					c0.5,0.9,1.3,1.6,2.1,2.1c0.9,0.5,2,0.8,3.2,0.8c1.2,0,2.3-0.3,3.2-0.8c0.9-0.5,1.6-1.2,2.2-2.1s1-1.9,1.2-3.1
					c0.2-1.2,0.4-2.5,0.4-3.8v-0.7c0-1.3-0.1-2.6-0.4-3.8c-0.2-1.2-0.7-2.2-1.2-3.1s-1.3-1.6-2.2-2.1c-0.9-0.5-2-0.8-3.2-0.8
					c-1.2,0-2.3,0.3-3.2,0.8c-0.9,0.5-1.6,1.2-2.1,2.1c-0.5,0.9-0.9,1.9-1.2,3.1c-0.2,1.2-0.4,2.4-0.4,3.8V198.7z"/>
				<path class="st0" d="M162.8,198.1c0-2.4,0.4-4.7,1.1-6.8c0.7-2.1,1.7-3.9,3.1-5.4c1.3-1.5,3-2.7,5-3.6c2-0.9,4.2-1.3,6.8-1.3
					c2.5,0,4.8,0.4,6.8,1.3c2,0.9,3.7,2.1,5,3.6c1.4,1.5,2.4,3.3,3.1,5.4c0.7,2.1,1.1,4.4,1.1,6.8v0.7c0,2.5-0.4,4.7-1.1,6.8
					c-0.7,2.1-1.7,3.9-3.1,5.4c-1.4,1.5-3,2.7-5,3.6c-2,0.9-4.2,1.3-6.8,1.3s-4.8-0.4-6.8-1.3c-2-0.9-3.6-2-5-3.6
					c-1.4-1.5-2.4-3.3-3.1-5.4c-0.7-2.1-1.1-4.4-1.1-6.8V198.1z M171.8,198.7c0,1.4,0.1,2.6,0.4,3.8c0.2,1.2,0.6,2.2,1.2,3.1
					c0.5,0.9,1.3,1.6,2.1,2.1c0.9,0.5,2,0.8,3.2,0.8c1.2,0,2.3-0.3,3.2-0.8c0.9-0.5,1.6-1.2,2.2-2.1s1-1.9,1.2-3.1
					c0.2-1.2,0.4-2.5,0.4-3.8v-0.7c0-1.3-0.1-2.6-0.4-3.8c-0.2-1.2-0.7-2.2-1.2-3.1s-1.3-1.6-2.2-2.1c-0.9-0.5-2-0.8-3.2-0.8
					c-1.2,0-2.3,0.3-3.2,0.8c-0.9,0.5-1.6,1.2-2.1,2.1c-0.5,0.9-0.9,1.9-1.2,3.1c-0.2,1.2-0.4,2.4-0.4,3.8V198.7z"/>
				<path class="st0" d="M198.7,198.1c0-2.5,0.3-4.9,0.9-7c0.6-2.1,1.4-3.9,2.6-5.4c1.1-1.5,2.5-2.7,4.1-3.5
					c1.6-0.8,3.5-1.2,5.6-1.2c1.7,0,3.2,0.3,4.6,1c1.3,0.6,2.5,1.5,3.5,2.7v-17.1h9v47.7h-8.1l-0.4-3.6c-1.1,1.3-2.3,2.4-3.7,3.1
					c-1.4,0.7-3.1,1.1-4.9,1.1c-2.1,0-3.9-0.4-5.5-1.3c-1.6-0.9-3-2-4.1-3.6c-1.1-1.5-2-3.3-2.6-5.4c-0.6-2.1-0.9-4.3-0.9-6.8V198.1
					z M207.7,198.8c0,1.4,0.1,2.6,0.3,3.8c0.2,1.2,0.6,2.2,1.1,3.1c0.5,0.9,1.2,1.6,2,2.1c0.8,0.5,1.8,0.8,3,0.8
					c1.4,0,2.7-0.3,3.6-0.9c1-0.6,1.7-1.5,2.2-2.6v-13.3c-0.5-1.1-1.3-2-2.2-2.6c-1-0.6-2.1-0.9-3.6-0.9c-1.2,0-2.2,0.3-3,0.8
					c-0.8,0.5-1.5,1.2-2,2.1c-0.5,0.9-0.9,1.9-1.1,3.1c-0.2,1.2-0.4,2.5-0.4,3.9V198.8z"/>
				<path class="st0" d="M272,200.1c-0.2,2.3-0.7,4.4-1.6,6.3c-0.9,1.9-2.1,3.6-3.6,5s-3.4,2.5-5.6,3.2c-2.2,0.8-4.7,1.2-7.5,1.2
					c-2.9,0-5.5-0.5-7.8-1.5c-2.3-1-4.3-2.4-5.9-4.3s-2.8-4.2-3.7-6.8s-1.3-5.7-1.3-9v-3c0-3.3,0.4-6.3,1.3-9s2.1-5,3.8-6.9
					c1.6-1.9,3.6-3.3,5.9-4.3s4.9-1.5,7.8-1.5c2.8,0,5.3,0.4,7.5,1.2c2.2,0.8,4,1.9,5.5,3.3c1.5,1.4,2.7,3.1,3.5,5.1
					s1.4,4.1,1.6,6.4h-9.3c-0.1-1.3-0.3-2.5-0.7-3.6c-0.4-1-0.9-1.9-1.6-2.6s-1.6-1.2-2.6-1.6c-1.1-0.4-2.4-0.5-3.9-0.5
					c-3.1,0-5.5,1.1-7,3.4c-1.5,2.3-2.3,5.8-2.3,10.6v3c0,2.3,0.2,4.4,0.5,6.1c0.3,1.8,0.9,3.2,1.6,4.4s1.7,2.1,2.9,2.7
					c1.2,0.6,2.6,0.9,4.2,0.9c1.5,0,2.7-0.2,3.8-0.5s2-0.8,2.7-1.5c0.7-0.7,1.3-1.5,1.7-2.5c0.4-1,0.6-2.2,0.7-3.5H272z"/>
				<path class="st0" d="M277.5,172.9c0-1.3,0.5-2.5,1.3-3.3c0.9-0.9,2.1-1.3,3.7-1.3c0.8,0,1.5,0.1,2.1,0.3s1.1,0.5,1.6,1
					s0.8,0.9,1,1.5c0.2,0.6,0.4,1.2,0.4,1.8c0,0.7-0.1,1.3-0.4,1.9c-0.2,0.6-0.6,1.1-1,1.5s-1,0.7-1.6,1s-1.3,0.3-2.1,0.3
					c-0.8,0-1.5-0.1-2.1-0.3c-0.6-0.2-1.1-0.5-1.6-1s-0.8-0.9-1-1.5C277.6,174.2,277.5,173.6,277.5,172.9z M287,215.2h-9v-33.6h9
					V215.2z"/>
				<path class="st0" d="M305.1,173.3v8.3h5.7v6.6h-5.7v16.8c0,0.7,0.1,1.3,0.2,1.7c0.1,0.5,0.4,0.8,0.7,1.1
					c0.3,0.3,0.6,0.4,1.1,0.5c0.4,0.1,0.9,0.1,1.5,0.1c0.5,0,1,0,1.5-0.1c0.4,0,0.8-0.1,1.2-0.2v6.8c-0.7,0.2-1.6,0.4-2.4,0.6
					c-0.9,0.2-1.9,0.2-3,0.2c-1.5,0-2.8-0.2-4-0.5c-1.2-0.4-2.2-0.9-3-1.7s-1.5-1.8-1.9-3.1c-0.5-1.3-0.7-2.8-0.7-4.6v-17.7h-4.9
					v-6.6h4.9v-8.3H305.1z"/>
				<path class="st0" d="M328.4,202.5l6.2-20.9h9.6l-13.4,38.6c-0.3,0.8-0.7,1.8-1.2,2.8s-1.1,1.9-2,2.8c-0.8,0.9-1.9,1.6-3.1,2.1
					c-1.2,0.6-2.7,0.9-4.5,0.9c-0.4,0-0.8,0-1.1,0s-0.7-0.1-1-0.1c-0.3,0-0.6-0.1-0.9-0.2c-0.3-0.1-0.6-0.2-1-0.3v-6.8
					c0.2,0,0.5,0,0.7,0c0.2,0,0.5,0,0.7,0c0.9,0,1.6-0.1,2.3-0.2c0.6-0.1,1.2-0.4,1.6-0.7s0.8-0.7,1.1-1.1s0.6-1,0.8-1.6l1-2.5
					l-11.8-33.7h9.7L328.4,202.5z"/>
			</g>
		</g>
		<g>
			<path class="st0" d="M16.6,229.3H421C420.9,229.3,221.8,240.2,16.6,229.3z"/>
		</g>
	</g>
	<g>
		<g>
			<g>
				<path class="st0" d="M183.1,151.9c4.3,3.9,19.8,5.6,37.9,3.7c18.1-1.9,32.9-6.6,36.3-11.4c-10.7,2.4-23.3,4.5-36.9,5.9
					C206.8,151.5,194.1,152.1,183.1,151.9z"/>
			</g>
			<g>
				<path class="st0" d="M217.2,118c-39.9,4.1-71.7,14-70.8,22c0.8,8,33.9,11.2,73.8,7.1c39.9-4.1,71.7-14,70.8-22
					C290.2,117.1,257.2,113.9,217.2,118z M255.4,132.9c4-1.4,6.3-2.8,6.1-4c-0.4-3.6-21.5-4.4-47.2-1.8c-14.7,1.5-27.6,3.8-36,6.2
					c7.9-2.8,22.6-5.6,39.6-7.4c25.7-2.7,46.8-1.8,47.2,1.8C265.4,129.3,261.7,131.1,255.4,132.9z"/>
			</g>
			<g>
				<g>
					<path class="st0" d="M280.8,118.9c3.3,1.3,5.2,2.9,5.3,4.7c0.8,8-30.9,17.9-70.8,22c-26.9,2.8-50.6,2.2-63.5-0.8
						c11,4.4,37.7,5.5,68.5,2.3c39.9-4.1,71.7-14,70.8-22C290.8,122.5,287.1,120.4,280.8,118.9z"/>
				</g>
			</g>
			<g>
				<path class="st0" d="M275.6,114.7c-6.8-1-15.4-1.6-25.2-1.6c-3.4,0-6.8,0.1-10.3,0.2c-7.4,0.3-15.2,0.8-23.2,1.6
					c-19.5,2-37.7,5.4-51.3,9.7c-2.6,0.8-5,1.6-7.2,2.5c-8.6-5.6-13-17.1-10.2-27c1.5-5.4,4.8-10.1,7.2-15.1s4-11,1.9-16.2
					c4.9,2.8,8.6,7.8,9.6,13.3c0.5,2.9,0.4,5.9,1.7,8.6c1.9,4,6.9,6.1,11.3,5.3c4.4-0.8,8.1-4.1,10-8.2c1.9-4,2.2-8.7,1.5-13.1
					c-1.2-7.9-5.3-15.2-6.3-23.2s1.1-16.3,6-22.7c0.1-0.2,0.2-0.3,0.3-0.5c-2.1,5.3-0.6,11.3,3.1,15.6c3.7,4.3,8.9,7,14.1,9.4
					c5.2,2.4,10.5,4.5,15.1,7.9c4.5,3.4,8.2,8.5,8.5,14.1c0.3,5.5-2.5,11.1-0.8,16.2c1.4,4.1,5.8,6.9,10.2,6.8s8.5-3,10.4-6.9
					c2.1-4.1,1.9-8.9,1-13.4c-0.8-4.5-2.2-8.9-2.4-13.5c-0.2-5.5,1.4-11.1,4.5-15.6c-1.7,3.1-1.7,7.2-1,10.6c1,4.4,3.6,8.2,6.6,11.6
					c2.9,3.4,6.2,6.5,8.9,10.1C276.6,90.8,278.8,103.5,275.6,114.7z"/>
			</g>
			<g>
				<path class="st0" d="M275.6,114.7c-6.8-1-15.4-1.6-25.2-1.6c-3.4,0-6.8,0.1-10.3,0.2c-2-2.2-5-3.7-7.9-4.7
					c-4.2-1.6-8.8-3-11.4-6.5c-2.5-3.4-2.7-8-2.3-12.2s1.3-8.5,0.6-12.7c-1-5.2-4.4-9.5-8.4-13c-4-3.4-8.5-6.1-12.6-9.4
					c-4.1-3.3-7.8-7.3-9.4-12.3c-1.1-3.7,0-9.5,2.3-13.6c0.1-0.2,0.2-0.3,0.3-0.5c-2.1,5.3-0.6,11.3,3.1,15.6
					c3.7,4.3,8.9,7,14.1,9.4c5.2,2.4,10.5,4.5,15.1,7.9c4.5,3.4,8.2,8.5,8.5,14.1c0.3,5.5-2.5,11.1-0.8,16.2
					c1.4,4.1,5.8,6.9,10.2,6.8s8.5-3,10.4-6.9c2.1-4.1,1.9-8.9,1-13.4c-0.8-4.5-2.2-8.9-2.4-13.5c-0.2-5.5,1.4-11.1,4.5-15.6
					c-1.7,3.1-1.7,7.2-1,10.6c1,4.4,3.6,8.2,6.6,11.6c2.9,3.4,6.2,6.5,8.9,10.1C276.6,90.8,278.8,103.5,275.6,114.7z"/>
			</g>
			<g>
				<path class="st0" d="M207.5,46.3c-2.4-2.4-3.3-6.3-3.4-9.9c-0.1-3.6,0.4-7.2,0.1-10.8c-0.4-5.4-3-9.3-6.6-13.1
					c1.1,2.1,1,4.8,0.5,7.2s-1.4,4.7-1.8,7.1c-0.7,4.1,0,8.6,2.1,12.2C200.5,42.6,203.8,45.3,207.5,46.3z"/>
			</g>
		</g>
	</g>
</g>
</svg>
